<svg xmlns="http://www.w3.org/2000/svg" viewBox="0 0 380 200" version="1.0">
    <g fill-rule="evenodd">
        <path fill="#bf0a30" d="M.5 183.5h379v16H.5z" />
        <path fill="#fff" d="M.5 167.5h379v16H.5z" />
        <path fill="#bf0a30" d="M.5 151.5h379v16H.5z" />
        <path fill="#fff" d="M.5 135.5h379v16H.5z" />
        <path fill="#bf0a30" d="M.5 120.5h379v15H.5z" />
        <path fill="#fff" d="M.5 105.5h379v15H.5z" />
        <path fill="#bf0a30" d="M.5 90.5h379v15H.5z" />
        <path fill="#fff" d="M.5 75.5h379v15H.5z" />
        <path fill="#bf0a30" d="M.5 60.5h379v15H.5z" />
        <path fill="#fff" d="M.5 45.5h379v15H.5z" />
        <path fill="#bf0a30" d="M.5 30.5h379v15H.5z" />
        <path fill="#fff" d="M.5 15.5h379v15H.5z" />
        <path fill="#bf0a30" d="M.5.5h379v15H.5z" />
    </g>
    <path fill="#002868" fill-rule="evenodd" d="M.5.5h152v105H.5z" />
    <path
        d="M6.85 93.116l4.407-.476 1.682-4.29 1.794 4.24 4.417.349-3.298 3.096 1.048 4.506-3.832-2.327-3.77 2.436.93-4.534zm25 0l4.407-.476 1.682-4.29 1.794 4.24 4.417.349-3.298 3.096 1.048 4.506-3.832-2.327-3.77 2.436.93-4.534zm26 0l4.407-.476 1.682-4.29 1.794 4.24 4.417.349-3.298 3.096 1.048 4.506-3.832-2.327-3.77 2.436.93-4.534zm25 0l4.407-.476 1.682-4.29 1.794 4.24 4.417.349-3.298 3.096 1.048 4.506-3.832-2.327-3.77 2.436.93-4.534zm25 0l4.407-.476 1.682-4.29 1.794 4.24 4.417.349-3.298 3.096 1.048 4.506-3.832-2.327-3.77 2.436.93-4.534zm26 0l4.407-.476 1.682-4.29 1.794 4.24 4.417.349-3.298 3.096 1.048 4.506-3.832-2.327-3.77 2.436.93-4.534zm-114-10l4.407-.476 1.682-4.29 1.794 4.24 4.417.349-3.298 3.096 1.048 4.506-3.832-2.327-3.77 2.436.93-4.534zm-13-11l4.407-.476 1.682-4.29 1.794 4.24 4.417.349-3.298 3.096 1.048 4.506-3.832-2.327-3.77 2.436.93-4.534zm13-10l4.407-.476 1.682-4.29 1.794 4.24 4.417.349-3.298 3.096 1.048 4.506-3.832-2.327-3.77 2.436.93-4.534zm-13-11l4.407-.476 1.682-4.29 1.794 4.24 4.417.349-3.298 3.096 1.048 4.506-3.832-2.327-3.77 2.436.93-4.534zm13-10l4.407-.476 1.682-4.29 1.794 4.24 4.417.349-3.298 3.096 1.048 4.506-3.832-2.327-3.77 2.436.93-4.534zm-13-11l4.407-.476 1.682-4.29 1.794 4.24 4.417.349-3.298 3.096 1.048 4.506-3.832-2.327-3.77 2.436.93-4.534zm13-10l4.407-.476 1.682-4.29 1.794 4.24 4.417.349-3.298 3.096 1.048 4.506-3.832-2.327-3.77 2.436.93-4.534zm-13-11l4.407-.476 1.682-4.29 1.794 4.24 4.417.349-3.298 3.096 1.048 4.506-3.832-2.327-3.77 2.436.93-4.534zm38 74l4.407-.476 1.682-4.29 1.794 4.24 4.417.349-3.298 3.096 1.048 4.506-3.832-2.327-3.77 2.436.93-4.534zm-13-11l4.407-.476 1.682-4.29 1.794 4.24 4.417.349-3.298 3.096 1.048 4.506-3.832-2.327-3.77 2.436.93-4.534zm13-10l4.407-.476 1.682-4.29 1.794 4.24 4.417.349-3.298 3.096 1.048 4.506-3.832-2.327-3.77 2.436.93-4.534zm-13-11l4.407-.476 1.682-4.29 1.794 4.24 4.417.349-3.298 3.096 1.048 4.506-3.832-2.327-3.77 2.436.93-4.534zm13-10l4.407-.476 1.682-4.29 1.794 4.24 4.417.349-3.298 3.096 1.048 4.506-3.832-2.327-3.77 2.436.93-4.534zm-13-11l4.407-.476 1.682-4.29 1.794 4.24 4.417.349-3.298 3.096 1.048 4.506-3.832-2.327-3.77 2.436.93-4.534zm13-10l4.407-.476 1.682-4.29 1.794 4.24 4.417.349-3.298 3.096 1.048 4.506-3.832-2.327-3.77 2.436.93-4.534zm-13-11l4.407-.476 1.682-4.29 1.794 4.24 4.417.349-3.298 3.096 1.048 4.506-3.832-2.327-3.77 2.436.93-4.534zm38 74l4.407-.476 1.682-4.29 1.794 4.24 4.417.349-3.298 3.096 1.048 4.506-3.832-2.327-3.77 2.436.93-4.534zm-12-11l4.407-.476 1.682-4.29 1.794 4.24 4.417.349-3.298 3.096 1.048 4.506-3.832-2.327-3.77 2.436.93-4.534zm50 0l4.407-.476 1.682-4.29 1.794 4.24 4.417.349-3.298 3.096 1.048 4.506-3.832-2.327-3.77 2.436.93-4.534zm-25 0l4.407-.476 1.682-4.29 1.794 4.24 4.417.349-3.298 3.096 1.048 4.506-3.832-2.327-3.77 2.436.93-4.534zm38 11l4.407-.476 1.682-4.29 1.794 4.24 4.417.349-3.298 3.096 1.048 4.506-3.832-2.327-3.77 2.436.93-4.534zm-25 0l4.407-.476 1.682-4.29 1.794 4.24 4.417.349-3.298 3.096 1.048 4.506-3.832-2.327-3.77 2.436.93-4.534zm-38-74l4.407-.476 1.682-4.29 1.794 4.24 4.417.349-3.298 3.096 1.048 4.506-3.832-2.327-3.77 2.436.93-4.534zm12 11l4.407-.476 1.682-4.29 1.794 4.24 4.417.349-3.298 3.096 1.048 4.506-3.832-2.327-3.77 2.436.93-4.534zm-12 10l4.407-.476 1.682-4.29 1.794 4.24 4.417.349-3.298 3.096 1.048 4.506-3.832-2.327-3.77 2.436.93-4.534zm12 11l4.407-.476 1.682-4.29 1.794 4.24 4.417.349-3.298 3.096 1.048 4.506-3.832-2.327-3.77 2.436.93-4.534zm-12 10l4.407-.476 1.682-4.29 1.794 4.24 4.417.349-3.298 3.096 1.048 4.506-3.832-2.327-3.77 2.436.93-4.534zm12 11l4.407-.476 1.682-4.29 1.794 4.24 4.417.349-3.298 3.096 1.048 4.506-3.832-2.327-3.77 2.436.93-4.534zm64 10l4.407-.476 1.682-4.29 1.794 4.24 4.417.349-3.298 3.096 1.048 4.506-3.832-2.327-3.77 2.436.93-4.534zm-51-21l4.407-.476 1.682-4.29 1.794 4.24 4.417.349-3.298 3.096 1.048 4.506-3.832-2.327-3.77 2.436.93-4.534zm0-42l4.407-.476 1.682-4.29 1.794 4.24 4.417.349-3.298 3.096 1.048 4.506-3.832-2.327-3.77 2.436.93-4.534zm0 21l4.407-.476 1.682-4.29 1.794 4.24 4.417.349-3.298 3.096 1.048 4.506-3.832-2.327-3.77 2.436.93-4.534zm38 32l4.407-.476 1.682-4.29 1.794 4.24 4.417.349-3.298 3.096 1.048 4.506-3.832-2.327-3.77 2.436.93-4.534zm-25 0l4.407-.476 1.682-4.29 1.794 4.24 4.417.349-3.298 3.096 1.048 4.506-3.832-2.327-3.77 2.436.93-4.534zm0-42l4.407-.476 1.682-4.29 1.794 4.24 4.417.349-3.298 3.096 1.048 4.506-3.832-2.327-3.77 2.436.93-4.534zm0 21l4.407-.476 1.682-4.29 1.794 4.24 4.417.349-3.298 3.096 1.048 4.506-3.832-2.327-3.77 2.436.93-4.534zm38 10l4.407-.476 1.682-4.29 1.794 4.24 4.417.349-3.298 3.096 1.048 4.506-3.832-2.327-3.77 2.436.93-4.534zm-26 0l4.407-.476 1.682-4.29 1.794 4.24 4.417.349-3.298 3.096 1.048 4.506-3.832-2.327-3.77 2.436.93-4.534zm0-42l4.407-.476 1.682-4.29 1.794 4.24 4.417.349-3.298 3.096 1.048 4.506-3.832-2.327-3.77 2.436.93-4.534zm0 21l4.407-.476 1.682-4.29 1.794 4.24 4.417.349-3.298 3.096 1.048 4.506-3.832-2.327-3.77 2.436.93-4.534zm26-21l4.407-.476 1.682-4.29 1.794 4.24 4.417.349-3.298 3.096 1.048 4.506-3.832-2.327-3.77 2.436.93-4.534zm-13 11l4.407-.476 1.682-4.29 1.794 4.24 4.417.349-3.298 3.096 1.048 4.506-3.832-2.327-3.77 2.436.93-4.534zm13 10l4.407-.476 1.682-4.29 1.794 4.24 4.417.349-3.298 3.096 1.048 4.506-3.832-2.327-3.77 2.436.93-4.534zm-13 11l4.407-.476 1.682-4.29 1.794 4.24 4.417.349-3.298 3.096 1.048 4.506-3.832-2.327-3.77 2.436.93-4.534z"
        fill="#fff" fill-rule="evenodd" />
    <path d="M.05 199.95L381.085 1.344l-.898 199.054z" fill="#fff" />
    <path
        d="M221.058 199.697l-.32-72.638 158.65.158.225 72.322zM379.512.895L250.553 69.194h128.734zM.5 199.725l141.54-73.69 19.77.224-.45 73.69z"
        fill="#00247d" />
    <path
        d="M380.352 179.699l-.41 19.538-33.128 2.06-130.023-68.202 1.483-9.516 57.667 1.573zm.283-179.702L247.183 70.99l41.339.899 91.439-48.528zM.05 199.05l148.589-76.354 15.232.581.054 14.497L47.304 199.5z"
        fill="#fff" />
    <path
        d="M-.174 199.275l146.56-75.526 15.424.055-.45 7.847L31.954 199.5zm238.82-74.365l28.757.9 112.333 60.21-.45 13.03z"
        fill="#cf142b" />
    <g fill="#cf142b">
        <path d="M379.468 116.165l-218.886-.225 72.581-37.175 146.341.29z" />
        <path d="M209.714 199.04l.449-107.534-37.86 19.143.077 88.802z" />
    </g>
    <path fill="none" stroke="#000" d="M.5.5h379v199H.5z" />
</svg>