<svg xmlns="http://www.w3.org/2000/svg" xmlns:xlink="http://www.w3.org/1999/xlink" width="1000"
    height="572.2" viewBox="-7.217 -4.129 1000 572.2">
    <path d="M-7.217-4.129h1000v572.2h-1000z" fill="#239f40" />
    <path d="M-7.217 281.971h1000v286.1h-1000z" fill="#da0000" />
    <path d="M-7.217 186.571h1000v190.75h-1000z" fill="#fff" />
    <g transform="translate(-7.217 155.471) scale(4.4445)">
        <g id="e">
            <g id="c" fill="none" stroke="#fff">
                <path id="b"
                    d="M3 .5h13M3.5 5V2.5h4v2h4v-2H9m-4 2h1m10 0h-2.5v-2h4m0-2.5v4.5h4V0m-2 0v4.5" />
                <path id="a" d="M3 7h9m1 0h9" stroke-width="2" />
                <use xlink:href="#a" y="42.913" width="100%" height="100%" />
                <use xlink:href="#b" y="51.913" width="100%" height="100%" />
            </g>
            <g id="d">
                <use xlink:href="#c" x="20" width="100%" height="100%" />
                <use xlink:href="#c" x="40" width="100%" height="100%" />
                <use xlink:href="#c" x="60" width="100%" height="100%" />
            </g>
        </g>
        <use xlink:href="#d" x="60" width="100%" height="100%" />
        <use xlink:href="#e" x="140" width="100%" height="100%" />
    </g>
    <g transform="matrix(69.285 0 0 69.285 492.783 281.971)" fill="#da0000">
        <g id="f">
            <path d="M-.548.836A.912.912 0 0 0 .329-.722 1 1 0 0 1-.548.836" />
            <path
                d="M.618.661A.764.764 0 0 0 .422-.74 1 1 0 0 1 .618.661M0 1l-.05-1L0-.787a.31.31 0 0 0 .118.099V-.1l-.04.993zM-.02-.85L0-.831a.144.144 0 0 0 .252-.137A.136.136 0 0 1 0-.925" />
        </g>
        <use xlink:href="#f" transform="scale(-1 1)" width="100%" height="100%" />
    </g>
</svg>