<svg t="1628253142116" class="icon" viewBox="0 0 1024 1024" version="1.1" xmlns="http://www.w3.org/2000/svg" p-id="984" width="200" height="200"><path d="M512 835.38c-78.7 0-154.49-28.67-213.41-80.74-58.39-51.6-96.11-122.37-106.21-199.26-1.79-13.6 7.79-26.07 21.38-27.85 13.59-1.79 26.07 7.79 27.85 21.38 8.54 65.01 40.45 124.86 89.86 168.52 49.83 44.04 113.94 68.29 180.52 68.29 66.58 0 130.69-24.25 180.52-68.29 49.41-43.66 81.32-103.51 89.86-168.52 1.79-13.6 14.26-23.17 27.85-21.38 13.6 1.79 23.17 14.26 21.38 27.85-10.1 76.9-47.82 147.66-106.21 199.26-58.9 52.07-134.69 80.74-213.39 80.74zM217.3 496.69c-1.13 0-2.28-0.08-3.43-0.24-13.58-1.88-23.07-14.41-21.19-28 10.57-76.4 48.46-146.64 106.7-197.78 58.79-51.62 134.3-80.05 212.62-80.05s153.83 28.43 212.62 80.05c58.24 51.14 96.13 121.38 106.7 197.78 1.88 13.58-7.61 26.12-21.19 28-13.59 1.88-26.12-7.61-28-21.19-8.94-64.59-41-124-90.28-167.27-49.73-43.66-113.6-67.71-179.86-67.71s-130.13 24.05-179.86 67.71c-49.28 43.27-81.34 102.68-90.28 167.27-1.7 12.43-12.35 21.43-24.55 21.43z" fill="#333333" p-id="985"></path><path d="M278.98 607.83c-3.79 0-7.63-0.87-11.23-2.7l-60.96-31c-12.22-6.22-17.09-21.16-10.88-33.39 6.22-12.22 21.16-17.09 33.39-10.88l60.96 31c12.22 6.22 17.09 21.16 10.88 33.39-4.39 8.62-13.11 13.58-22.16 13.58zM805.68 496.83c-3.02 0-6.09-0.55-9.07-1.72l-63.69-25c-12.76-5.01-19.05-19.42-14.04-32.18 5.01-12.76 19.42-19.05 32.18-14.04l63.69 25c12.76 5.01 19.05 19.42 14.04 32.18-3.83 9.79-13.2 15.76-23.11 15.76z" fill="#333333" p-id="986"></path><path d="M373.5 392m-24.83 0a24.83 24.83 0 1 0 49.66 0 24.83 24.83 0 1 0-49.66 0Z" fill="#333333" p-id="987"></path><path d="M654 416.83H452c-13.71 0-24.83-11.12-24.83-24.83s11.12-24.83 24.83-24.83h202c13.71 0 24.83 11.12 24.83 24.83s-11.12 24.83-24.83 24.83z" fill="#333333" p-id="988"></path><path d="M373.5 520.5m-24.83 0a24.83 24.83 0 1 0 49.66 0 24.83 24.83 0 1 0-49.66 0Z" fill="#448AFF" p-id="989"></path><path d="M654 545.33H452c-13.71 0-24.83-11.12-24.83-24.83 0-13.71 11.12-24.83 24.83-24.83h202c13.71 0 24.83 11.12 24.83 24.83 0 13.71-11.12 24.83-24.83 24.83z" fill="#448AFF" p-id="990"></path><path d="M373.5 649m-24.83 0a24.83 24.83 0 1 0 49.66 0 24.83 24.83 0 1 0-49.66 0Z" fill="#333333" p-id="991"></path><path d="M654 673.83H452c-13.71 0-24.83-11.12-24.83-24.83s11.12-24.83 24.83-24.83h202c13.71 0 24.83 11.12 24.83 24.83s-11.12 24.83-24.83 24.83z" fill="#333333" p-id="992"></path></svg>