<svg t="1603130360034" class="icon" viewBox="0 0 1024 1024" version="1.1" xmlns="http://www.w3.org/2000/svg" p-id="18939" width="200" height="200"><path d="M864 260H728l-32.4-90.8C691 156.5 679 148 665.4 148H358.6c-13.5 0-25.6 8.5-30.1 21.2L296 260H160c-44.2 0-80 35.8-80 80v456c0 44.2 35.8 80 80 80h704c44.2 0 80-35.8 80-80V340c0-44.2-35.8-80-80-80zM512 716c-88.4 0-160-71.6-160-160s71.6-160 160-160 160 71.6 160 160-71.6 160-160 160z" p-id="18940"></path><path d="M512 556m-96 0a96 96 0 1 0 192 0 96 96 0 1 0-192 0Z" p-id="18941"></path></svg>