<svg t="1577169032634" class="icon" viewBox="0 0 1024 1024" version="1.1" xmlns="http://www.w3.org/2000/svg" p-id="4021" width="200" height="200"><path d="M704.137 127.99V63.946H320.062v64.044H127.689l-0.83 832.355 321.228-0.787v-63.919h-256.05l-0.336-703.856h128.361l-0.097 64.169h384.172v-64.169l128.025 0.055v384.207h64.012v-448.22l-192.037 0.165z m-64.013 63.794h-256.05V127.99h256.05v63.794z" p-id="4022"></path><path d="M320.062 511.014l256.05 0.58v64.452h-256.05zM320.062 383.79h384.075v64.419H320.062zM768.149 768.149l128.025-0.347v63.919H768.149v127.837h-64.012V831.721H576.112v-63.919h128.025V639.965h64.012z" p-id="4023"></path><path d="M320.062 639.965l128.025-0.534v64.452l-128.025 1.114z" p-id="4024"></path></svg>