<svg t="1577168983543" class="icon" viewBox="0 0 1024 1024" version="1.1" xmlns="http://www.w3.org/2000/svg" p-id="3428" width="200" height="200"><path d="M810.7 549.3v336H213.3V138.7h261.3c20.6 0 37.3-16.7 37.3-37.3 0-20.6-16.7-37.3-37.3-37.3H213.3c-41.2 0-74.7 33.4-74.7 74.7v746.7c0 41.2 33.4 74.7 74.7 74.7h597.3c41.2 0 74.7-33.4 74.7-74.7v-336c0-20.6-16.7-37.3-37.3-37.3-20.6-0.2-37.3 16.5-37.3 37.1z" p-id="3429"></path><path d="M874.3 75c-14.7-14.7-38.4-14.7-53.1 0L624.4 271.8v-59.5c0-20.7-16.8-37.5-37.5-37.5s-37.5 16.8-37.5 37.5v150.2c0 20.7 16.8 37.5 37.5 37.5H737c20.7 0 37.5-16.8 37.5-37.5S757.7 325 737 325h-59.5l196.8-196.8c14.7-14.8 14.7-38.5 0-53.2z" p-id="3430"></path></svg>