<svg t="1577168739988" class="icon" viewBox="0 0 1024 1024" version="1.1" xmlns="http://www.w3.org/2000/svg" p-id="1695" width="200" height="200"><path d="M469.333333 768h85.333334v-85.333333h-85.333334v85.333333m42.666667-682.666667C276.48 85.333333 85.333333 276.48 85.333333 512s191.146667 426.666667 426.666667 426.666667 426.666667-191.146667 426.666667-426.666667S747.52 85.333333 512 85.333333m0 768c-188.16 0-341.333333-153.173333-341.333333-341.333333s153.173333-341.333333 341.333333-341.333333 341.333333 153.173333 341.333333 341.333333-153.173333 341.333333-341.333333 341.333333m0-597.333333c-94.293333 0-170.666667 76.373333-170.666667 170.666667h85.333334c0-46.933333 38.4-85.333333 85.333333-85.333334s85.333333 38.4 85.333333 85.333334c0 85.333333-128 74.666667-128 213.333333h85.333334c0-96 128-106.666667 128-213.333333 0-94.293333-76.373333-170.666667-170.666667-170.666667z" p-id="1696"></path></svg>