<svg t="1577169177516" class="icon" viewBox="0 0 1024 1024" version="1.1" xmlns="http://www.w3.org/2000/svg" p-id="4960" width="200" height="200"><path d="M591.1 432.7c-9.7-9.7-25.5-9.7-35.2 0L432.6 555.9c-9.7 9.7-9.7 25.5 0 35.2 9.7 9.7 25.5 9.7 35.2 0l123.3-123.3c9.7-9.6 9.7-25.4 0-35.1z m-288.2 387c-19.4 19.5-54.4-5.2-73.9-24.6-19.5-19.4-44.1-54.4-24.6-73.9L431.6 486c-33.2-8.8-78.1-12.5-104.1 13.5L155.2 672c-38.9 38.9-34.4 117.6 4.5 156.5l35.2 35.2c38.9 38.9 118.4 44.2 157.3 5.3l172.4-172.4c26-26 21.5-71.7 12.7-104.9l-234.4 228zM864 194.6l-35.2-35.2c-38.9-38.9-117.6-43.4-156.5-4.5L499.9 327.2c-26 26-22.3 70.9-13.5 104.1l235.2-227.2c19.4-19.5 54.4 5.2 73.9 24.6 19.4 19.5 44.1 54.4 24.6 73.9L592 537c33.2 8.8 78.9 13.3 104.9-12.7l172.4-172.4c38.9-39 33.6-118.4-5.3-157.3z" p-id="4961"></path></svg>