<svg t="1577169047185" class="icon" viewBox="0 0 1024 1024" version="1.1" xmlns="http://www.w3.org/2000/svg" p-id="4374" width="200" height="200"><path d="M484.96 523.328l-12.224 26.752-32.192 15.872 4.384 15.2c-20.512 32.416-22.656 82.912 0.352 116.16l91.68 133.088c34.368 49.984 97.888 61.696 147.84 27.328 43.136-35.52 54.912-98.816 27.456-147.264l-92.992-126.112c-28.704-41.504-76.672-57.664-115.744-43.2l-18.56-17.824z m93.888 82.592l91.776 133.088c17.216 24.96 10.72 59.968-14.368 77.152a56.096 56.096 0 0 1-77.472-14.368l-93.152-126.016c-11.36-16.512-14.656-38.976-4.768-51.776l22.912 33.216c11.328 16.768 32.48 20.736 42.144 7.776 15.488-4.288 19.392-25.408 7.808-41.952l-21.632-40.224c14.176 2.688 35.168 6.56 46.752 23.104zM379.872 148.416a105.088 105.088 0 0 0-81.12 122.656l21.824 156.576c13.472 45.888 44.672 73.568 86.752 81.344l8.992 30.656 36.416-0.448 25.216-17.152-3.008-22.496c40.352-21.504 63.488-68.064 57.344-112.672l-28.928-157.664c-12.032-53.024-63.136-91.456-123.488-80.8z m77.248 93.856l28.768 157.984c4.736 15.232-6.528 34.976-23.072 46.304l-1.76-29.344c-4.576-15.264-17.28-24.768-39.744-21.76-15.264 4.384-25.088 17.184-28.992 38.048l10.24 23.712c-19.872-10.88-25.568-19.136-28.608-41.504l-28.96-157.632c-8.96-30.656 17.44-54.88 48.352-63.776 29.44-1.76 55.04 17.344 63.776 47.968z m30.496 266.848l36-36.704 60.672 25.6-2.624 14.112-53.696-24.576-36.032 37.056-4.32-15.488z m-90.048 92.256l-54.528 18.944 2.624-13.952 46.016-13.248 5.248-28.032 30.784-8.96 5.856 8.544-23.776 10.016-12.224 26.688z" p-id="4375"></path></svg>