<svg t="1577168893140" class="icon" viewBox="0 0 1024 1024" version="1.1" xmlns="http://www.w3.org/2000/svg" p-id="2368" width="200" height="200"><path d="M511.99999895 511.99924322C511.9995814 511.99924322 511.99924266 511.99958223 511.99924266 512.00000029 511.99924266 512.00041842 511.9995814 512.00075734 511.99999895 512.00075734a0.00075678 0.00075678 0 0 0 0.0007566-0.00075705C512.00075536 511.99958223 512.00041654 511.99924322 511.99999895 511.99924322z m0 0.00141151c-0.00036048 0-0.00065377-0.00029348-0.00065377-0.00065444 0-0.00036086 0.00029327-0.00065443 0.00065377-0.00065444 0.00036069 0 0.00065398 0.00029348 0.00065397 0.00065444-7e-8 0.00036097-0.00029327 0.00065443-0.00065397 0.00065444z" p-id="2369"></path><path d="M781.62850247 279.31175122c0-221.11127931-257.87478539-221.11127931-257.87478538-221.11127931v442.13418482c-0.08837381 0 257.87478539 0 257.87478538-221.02290551zM279.31175122 242.45987135c-221.11127931 0-221.11127931 257.87478539-221.11127931 257.87478538h442.13418482s0-257.87478539-221.02290551-257.87478538zM242.45987135 744.86499641c0 220.9345317 257.87478539 220.9345317 257.87478538 220.93453168V523.75371709s-257.87478539 0-257.87478538 221.11127932zM744.86499641 781.62850247c220.9345317 0 220.9345317-257.87478539 220.93453168-257.87478538H523.66534327s0 257.87478539 221.19965314 257.87478538z" p-id="2370"></path></svg>