<svg t="1577169055872" class="icon" viewBox="0 0 1024 1024" version="1.1" xmlns="http://www.w3.org/2000/svg" p-id="4491" width="200" height="200"><path d="M752 664c-28.5 0-54.8 10-75.4 26.7L469.4 540.8c1.7-9.3 2.6-19 2.6-28.8s-0.9-19.4-2.6-28.8l207.2-149.9C697.2 350 723.5 360 752 360c66.2 0 120-53.8 120-120s-53.8-120-120-120-120 53.8-120 120c0 11.6 1.6 22.7 4.7 33.3L439.9 415.8C410.7 377.1 364.3 352 312 352c-88.4 0-160 71.6-160 160s71.6 160 160 160c52.3 0 98.7-25.1 127.9-63.8l196.8 142.5c-3.1 10.6-4.7 21.8-4.7 33.3 0 66.2 53.8 120 120 120s120-53.8 120-120-53.8-120-120-120z m0-476c28.7 0 52 23.3 52 52s-23.3 52-52 52-52-23.3-52-52 23.3-52 52-52zM312 600c-48.5 0-88-39.5-88-88s39.5-88 88-88 88 39.5 88 88-39.5 88-88 88z m440 236c-28.7 0-52-23.3-52-52s23.3-52 52-52 52 23.3 52 52-23.3 52-52 52z" p-id="4492"></path></svg>