<svg t="1577168879633" class="icon" viewBox="0 0 1024 1024" version="1.1" xmlns="http://www.w3.org/2000/svg" p-id="2257" width="200" height="200"><path d="M853.56074463 666.76220703a34.29052734 34.29052734 0 0 1-34.13232422-34.40917969V391.64697266c0-18.984375 15.26660156-34.40917969 34.13232422-34.40917969s34.171875 15.42480469 34.171875 34.40917969v240.70605468c0 9.13623047-3.59912109 17.87695313-10.00634766 24.32373047a34.01367188 34.01367188 0 0 1-24.12597656 10.08544922z m-170.78027344 137.55761719a34.01367188 34.01367188 0 0 1-24.12597656-10.04589844 34.52783203 34.52783203 0 0 1-10.00634766-24.32373047V254.04980469c0-18.984375 15.26660156-34.40917969 34.13232422-34.40917969s34.171875 15.42480469 34.171875 34.40917969v515.90039062c0 9.09667969-3.59912109 17.87695313-10.00634765 24.32373047a34.01367188 34.01367188 0 0 1-24.12597657 10.04589844zM512.00019776 907.5078125a34.29052734 34.29052734 0 0 1-34.171875-34.40917969V150.90136719c0-18.984375 15.30615234-34.40917969 34.171875-34.40917969s34.171875 15.42480469 34.171875 34.40917969v722.19726562c0 18.984375-15.30615234 34.40917969-34.171875 34.40917969z m-170.78027344-103.18798828a34.01367188 34.01367188 0 0 1-24.12597655-10.04589844 34.52783203 34.52783203 0 0 1-10.04589845-24.32373047V254.04980469c0-18.984375 15.30615234-34.40917969 34.171875-34.40917969s34.13232422 15.42480469 34.13232422 34.40917969v515.90039062c0 9.09667969-3.55957031 17.87695313-9.96679688 24.32373047a34.01367188 34.01367188 0 0 1-24.16552734 10.04589844zM170.43965088 666.76220703a34.29052734 34.29052734 0 0 1-34.171875-34.40917969V391.64697266c0-18.984375 15.30615234-34.40917969 34.171875-34.40917969s34.13232422 15.42480469 34.13232422 34.40917969v240.70605468c0 9.13623047-3.55957031 17.87695313-10.00634765 24.32373047a34.01367188 34.01367188 0 0 1-24.12597657 10.08544922z" p-id="2258"></path></svg>