<svg t="1577168935222" class="icon" viewBox="0 0 1024 1024" version="1.1" xmlns="http://www.w3.org/2000/svg" p-id="2838" width="200" height="200"><path d="M826 472c-17.673 0-32-14.327-32-32V136a8 8 0 0 0-8-8H136a8 8 0 0 0-8 8v752a8 8 0 0 0 8 8h289c17.673 0 32 14.327 32 32 0 17.673-14.327 32-32 32H96c-17.673 0-32-14.327-32-32V96c0-17.673 14.327-32 32-32h730c17.673 0 32 14.327 32 32v344c0 17.673-14.327 32-32 32zM211 270h471c17.673 0 32 14.327 32 32 0 17.673-14.327 32-32 32H211c-17.673 0-32-14.327-32-32 0-17.673 14.327-32 32-32z m5 206h212c17.673 0 32 14.327 32 32 0 17.673-14.327 32-32 32H216c-17.673 0-32-14.327-32-32 0-17.673 14.327-32 32-32z m304 0h44c17.673 0 32 14.327 32 32 0 17.673-14.327 32-32 32h-44c-17.673 0-32-14.327-32-32 0-17.673 14.327-32 32-32z m28.821 332.061l285.434-285.434c12.497-12.496 32.758-12.496 45.255 0l70.003 70.004c12.497 12.497 12.497 32.758 0 45.255L664.08 923.32a32 32 0 0 1-21.043 9.333l-91.301 4.525c-8.826 0.437-16.335-6.363-16.772-15.188a16 16 0 0 1 0-1.584l4.525-91.302a32 32 0 0 1 9.333-21.043z m30.875 48.32l-1.4 28.902a8 8 0 0 0 8.325 8.38l29.138-1.219 267.993-267.993a8 8 0 0 0 0-11.314l-24.748-24.749a8 8 0 0 0-11.314 0L579.696 856.382zM216 746c-17.673 0-32-14.327-32-32 0-17.673 14.327-32 32-32 17.673 0 32 14.327 32 32 0 17.673-14.327 32-32 32z m104 0c-17.673 0-32-14.327-32-32 0-17.673 14.327-32 32-32 17.673 0 32 14.327 32 32 0 17.673-14.327 32-32 32z m104 0c-17.673 0-32-14.327-32-32 0-17.673 14.327-32 32-32 17.673 0 32 14.327 32 32 0 17.673-14.327 32-32 32z" p-id="2839"></path></svg>