<svg t="1577168950499" class="icon" viewBox="0 0 1024 1024" version="1.1" xmlns="http://www.w3.org/2000/svg" p-id="2955" width="200" height="200"><path d="M687.1 303.7c0-19-15.4-34.4-34.4-34.4H307.5c-19 0-34.4 15.4-34.4 34.4s15.4 34.4 34.4 34.4h345.2c19 0 34.4-15.4 34.4-34.4zM548.8 510.7c0-19-15.4-34.4-34.4-34.4h-207c-19 0-34.4 15.4-34.4 34.4s15.4 34.4 34.4 34.4h207c19-0.1 34.4-15.4 34.4-34.4zM307.5 682.9c-19 0-34.4 15.4-34.4 34.4s15.4 34.4 34.4 34.4h69.1c19 0 34.4-15.4 34.4-34.4s-15.4-34.4-34.4-34.4h-69.1z" p-id="2956"></path><path d="M485.7 890.6H170.1V134.8h619.5v361.9c24.9 8.5 48.1 20.5 69 35.6v-432c0-19-15.5-34.5-34.5-34.5H135.6c-19 0-34.5 15.5-34.5 34.5v824.8c0 19 15.5 34.5 34.5 34.5h416.6c-26.2-18.8-48.8-42.2-66.5-69z" p-id="2957"></path><path d="M917.9 900.9L869.1 852c-0.7-0.7-1.5-1.4-2.2-2 20.4-29.9 32.3-66.1 32.3-105 0-103.2-83.6-186.8-186.8-186.8S525.5 641.8 525.5 745s83.6 186.8 186.8 186.8c39.5 0 76.1-12.3 106.3-33.2 0.6 0.7 1.2 1.4 1.9 2l48.9 48.9c13.4 13.4 35.2 13.4 48.6 0 13.4-13.4 13.4-35.2-0.1-48.6z m-122.3-72.6c-22.3 22.3-51.9 34.5-83.3 34.5-31.5 0-61.1-12.3-83.3-34.5-22.3-22.3-34.5-51.9-34.5-83.3s12.3-61.1 34.5-83.3c22.3-22.3 51.9-34.5 83.3-34.5 31.5 0 61.1 12.3 83.3 34.5 22.3 22.3 34.5 51.9 34.5 83.3s-12.2 61-34.5 83.3z" p-id="2958"></path></svg>